<svg width="200" height="50" viewBox="0 0 200 50" fill="none" xmlns="http://www.w3.org/2000/svg">
  <path d="M27.24 10H12.76L5 25L12.76 40H27.24L35 25L27.24 10Z" fill="#E63946"/>
  <path d="M55.728 36V14.4H60.912L69.12 28.224H69.264L69.12 22.992V14.4H73.248V36H68.256L59.856 21.84H59.712L59.856 27.072V36H55.728ZM85.9051 36.288C84.2171 36.288 82.7371 35.952 81.4651 35.28C80.2091 34.608 79.2251 33.664 78.5131 32.448C77.8011 31.216 77.4451 29.792 77.4451 28.176C77.4451 26.544 77.8011 25.12 78.5131 23.904C79.2251 22.688 80.2091 21.744 81.4651 21.072C82.7371 20.4 84.2171 20.064 85.9051 20.064C87.6091 20.064 89.0891 20.4 90.3451 21.072C91.6171 21.744 92.6011 22.688 93.2971 23.904C94.0091 25.12 94.3651 26.544 94.3651 28.176C94.3651 29.792 94.0091 31.216 93.2971 32.448C92.6011 33.664 91.6171 34.608 90.3451 35.28C89.0891 35.952 87.6091 36.288 85.9051 36.288ZM85.9051 32.832C86.9371 32.832 87.7611 32.48 88.3771 31.776C88.9931 31.056 89.3011 29.984 89.3011 28.56V27.792C89.3011 26.352 88.9931 25.28 88.3771 24.576C87.7611 23.856 86.9371 23.496 85.9051 23.496C84.8891 23.496 84.0651 23.856 83.4331 24.576C82.8171 25.28 82.5091 26.352 82.5091 27.792V28.56C82.5091 29.984 82.8171 31.056 83.4331 31.776C84.0651 32.48 84.8891 32.832 85.9051 32.832ZM105.236 36.288C103.564 36.288 102.084 35.952 100.796 35.28C99.5245 34.608 98.5245 33.664 97.7965 32.448C97.0845 31.216 96.7285 29.792 96.7285 28.176C96.7285 26.544 97.0845 25.12 97.7965 23.904C98.5245 22.688 99.5245 21.744 100.796 21.072C102.084 20.4 103.564 20.064 105.236 20.064C106.708 20.064 107.996 20.336 109.108 20.88C110.22 21.408 111.084 22.208 111.7 23.28L108.292 25.248C107.596 24.176 106.596 23.64 105.292 23.64C104.308 23.64 103.5 23.976 102.868 24.648C102.252 25.304 101.944 26.24 101.944 27.456V28.896C101.944 30.096 102.252 31.032 102.868 31.704C103.5 32.36 104.308 32.688 105.292 32.688C106.596 32.688 107.596 32.152 108.292 31.08L111.7 33.072C111.084 34.144 110.22 34.952 109.108 35.496C107.996 36.024 106.708 36.288 105.236 36.288ZM122.95 36.288C121.262 36.288 119.782 35.952 118.51 35.28C117.254 34.608 116.27 33.664 115.558 32.448C114.846 31.216 114.49 29.792 114.49 28.176C114.49 26.544 114.846 25.12 115.558 23.904C116.27 22.688 117.254 21.744 118.51 21.072C119.782 20.4 121.262 20.064 122.95 20.064C124.654 20.064 126.134 20.4 127.39 21.072C128.662 21.744 129.646 22.688 130.342 23.904C131.054 25.12 131.41 26.544 131.41 28.176C131.41 29.792 131.054 31.216 130.342 32.448C129.646 33.664 128.662 34.608 127.39 35.28C126.134 35.952 124.654 36.288 122.95 36.288ZM122.95 32.832C123.982 32.832 124.806 32.48 125.422 31.776C126.038 31.056 126.346 29.984 126.346 28.56V27.792C126.346 26.352 126.038 25.28 125.422 24.576C124.806 23.856 123.982 23.496 122.95 23.496C121.934 23.496 121.11 23.856 120.478 24.576C119.862 25.28 119.554 26.352 119.554 27.792V28.56C119.554 29.984 119.862 31.056 120.478 31.776C121.11 32.48 121.934 32.832 122.95 32.832ZM141.265 36V14.4H146.305V36H141.265ZM149.536 36V14.4H154.576V36H149.536ZM157.791 36V20.352H162.831V36H157.791ZM160.311 18.48C159.487 18.48 158.783 18.208 158.199 17.664C157.631 17.12 157.347 16.456 157.347 15.672C157.347 14.888 157.631 14.224 158.199 13.68C158.783 13.136 159.487 12.864 160.311 12.864C161.135 12.864 161.831 13.128 162.399 13.656C162.983 14.184 163.275 14.84 163.275 15.624C163.275 16.44 162.983 17.12 162.399 17.664C161.831 18.208 161.135 18.48 160.311 18.48ZM166.465 36V33.288L173.585 23.976H166.465V20.352H179.561V23.064L172.441 32.376H179.681V36H166.465Z" fill="#0056B3"/>
</svg>
